Hanif_Medium_5_0_grf.mot
version=1
nRows=63
nColumns=19
inDegrees=yes
endheader
time	right_ground_force_vx	right_ground_force_vy	right_ground_force_vz	right_ground_force_px	right_ground_force_py	right_ground_force_pz	right_ground_torque_x	right_ground_torque_y	right_ground_torque_z	left_ground_force_vx	left_ground_force_vy	left_ground_force_vz	left_ground_force_px	left_ground_force_py	left_ground_force_pz	left_ground_torque_x	left_ground_torque_y	left_ground_torque_z
6.945000	-7.312300	218.064000	30.210100	0.268589	0.000000	-1.398620	-23.390200	-3.633350	14.849300	-3.915030	155.132000	-22.194800	0.271653	0.000000	-1.004630	15.823900	-0.291029	11.441800
6.950000	-7.931350	216.532000	29.476800	0.268962	0.000000	-1.398650	-23.213900	-3.721590	14.818600	-3.599480	151.903000	-21.890800	0.271531	0.000000	-1.003080	15.251800	-0.142954	11.164000
6.955000	-8.848070	214.314000	28.493300	0.270079	0.000000	-1.397490	-23.216200	-3.885010	14.895600	-3.970980	148.675000	-21.462500	0.273056	0.000000	-1.005530	15.297200	-0.040845	11.152600
6.960000	-9.663400	210.375000	27.625700	0.272408	0.000000	-1.396650	-22.955300	-4.146150	15.089700	-4.023130	147.294000	-21.259800	0.273662	0.000000	-1.005080	15.091200	-0.026988	11.139200
6.965000	-10.501200	207.825000	27.434700	0.272563	0.000000	-1.395390	-22.931200	-4.278090	14.931900	-4.380830	145.151000	-21.642200	0.275095	0.000000	-1.007180	15.179800	0.141466	11.189400
6.970000	-11.557200	203.942000	27.574100	0.272630	0.000000	-1.395800	-22.408000	-4.458210	14.652400	-4.240120	147.348000	-21.864600	0.274140	0.000000	-1.004580	15.022400	0.132733	11.209100
6.975000	-11.879100	200.302000	27.701200	0.274424	0.000000	-1.394460	-22.271300	-4.574220	14.743100	-3.878860	146.807000	-22.545900	0.275195	0.000000	-1.005990	15.169400	0.240273	11.324000
6.980000	-11.581300	200.313000	27.401700	0.272805	0.000000	-1.396860	-21.786000	-4.568420	14.404600	-3.487890	146.813000	-23.410300	0.275567	0.000000	-1.003720	14.828000	0.421124	11.365100
6.985000	-11.562200	196.014000	28.325300	0.272284	0.000000	-1.397230	-21.240500	-4.666910	13.971800	-3.205960	146.278000	-23.672400	0.275001	0.000000	-1.004970	14.953600	0.386609	11.248700
6.990000	-10.601800	193.157000	28.145300	0.272665	0.000000	-1.397370	-20.902500	-4.664570	13.821800	-2.717700	144.600000	-23.819700	0.275813	0.000000	-1.006760	15.034400	0.430470	11.235600
6.995000	-10.123400	190.955000	29.522400	0.272707	0.000000	-1.396080	-20.911200	-4.730640	13.656300	-2.155020	142.647000	-23.673900	0.277861	0.000000	-1.008440	15.063000	0.551432	11.358800
7.000000	-9.352900	189.430000	30.109800	0.272459	0.000000	-1.397480	-20.482100	-4.693760	13.487900	-2.358220	143.011000	-23.746800	0.278545	0.000000	-1.008940	15.176000	0.555584	11.491700
7.005000	-9.170870	186.652000	30.027700	0.272536	0.000000	-1.397720	-20.135200	-4.710750	13.291400	-2.368610	142.227000	-23.746800	0.280990	0.000000	-1.008660	15.052500	0.654632	11.772500
7.010000	-9.406150	182.798000	29.768200	0.274933	0.000000	-1.396620	-19.911800	-4.856410	13.437500	-2.969260	139.887000	-23.450800	0.281278	0.000000	-1.008910	14.847600	0.673559	11.629000
7.015000	-10.215500	180.365000	29.830400	0.275230	0.000000	-1.396240	-19.705600	-4.985160	13.301100	-4.259820	136.516000	-22.650300	0.284233	0.000000	-1.010690	14.751100	0.753502	11.766800
7.020000	-11.163700	179.906000	29.339300	0.275986	0.000000	-1.395030	-19.864200	-5.066590	13.409600	-4.988490	137.898000	-22.791400	0.283694	0.000000	-1.009720	14.772000	0.923731	11.791800
7.025000	-12.065900	179.438000	29.317000	0.276209	0.000000	-1.395210	-19.769000	-5.228890	13.404000	-6.121640	138.497000	-22.300800	0.285250	0.000000	-1.011130	15.047800	0.923450	12.070800
7.030000	-13.138400	179.766000	29.042300	0.276606	0.000000	-1.396080	-19.636300	-5.351530	13.499300	-6.805750	139.597000	-22.353700	0.284930	0.000000	-1.010960	15.146700	1.086660	12.103600
7.035000	-14.340900	179.368000	29.135600	0.277850	0.000000	-1.395320	-19.731800	-5.370090	13.717800	-7.806090	138.898000	-21.433000	0.285978	0.000000	-1.009150	14.829900	1.143210	12.178000
7.040000	-15.363200	178.990000	28.482200	0.277045	0.000000	-1.395560	-19.634900	-5.446210	13.542900	-8.106700	139.854000	-21.695200	0.285079	0.000000	-1.009500	14.982500	1.191990	12.133900
7.045000	-16.562700	182.328000	29.083000	0.277457	0.000000	-1.395850	-19.944700	-5.613080	13.877600	-7.907250	140.320000	-21.777300	0.284892	0.000000	-1.010170	15.122100	1.197290	12.144700
7.050000	-16.819100	186.882000	29.093800	0.276712	0.000000	-1.396720	-20.279400	-5.657040	14.088900	-8.382420	141.975000	-21.412400	0.283255	0.000000	-1.009190	15.163800	1.189720	12.043700
7.055000	-16.516200	189.585000	29.320800	0.275569	0.000000	-1.395080	-20.881700	-5.736490	14.065500	-8.443560	143.664000	-22.141100	0.284478	0.000000	-1.009980	15.454900	1.324700	12.359700
7.060000	-16.311700	193.830000	30.502700	0.276340	0.000000	-1.396190	-21.146600	-5.763370	14.538300	-7.801990	147.211000	-23.131000	0.283417	0.000000	-1.009530	15.762300	1.246080	12.517900
7.065000	-15.974000	197.421000	30.210900	0.275322	0.000000	-1.396190	-21.541300	-5.719000	14.611700	-7.943800	149.992000	-23.716700	0.285319	0.000000	-1.010930	16.274000	1.277010	13.050700
7.070000	-15.357900	202.411000	30.661900	0.275652	0.000000	-1.396620	-22.010400	-5.700740	15.055000	-7.962180	151.794000	-23.737100	0.286062	0.000000	-1.009750	16.284000	1.363570	13.302900
7.075000	-14.718600	207.954000	31.194300	0.276073	0.000000	-1.397100	-22.527000	-5.663610	15.566500	-8.736310	154.448000	-23.688700	0.285012	0.000000	-1.010320	16.660900	1.448030	13.360600
7.080000	-14.782000	213.846000	31.470400	0.275671	0.000000	-1.397220	-23.147500	-5.650050	15.937600	-9.124920	157.562000	-23.337300	0.286699	0.000000	-1.012070	17.279200	1.389850	13.901800
7.085000	-14.619200	218.529000	31.067300	0.276007	0.000000	-1.396540	-23.803400	-5.712310	16.360900	-9.896490	163.242000	-22.876600	0.286108	0.000000	-1.010290	17.605600	1.521510	14.268100
7.090000	-15.150400	225.572000	31.053900	0.275494	0.000000	-1.397750	-24.302300	-5.695250	16.793800	-10.310800	166.776000	-22.514000	0.286270	0.000000	-1.011530	18.193300	1.565340	14.589800
7.095000	-15.586100	231.799000	31.407700	0.275453	0.000000	-1.398190	-24.878900	-5.691070	17.267700	-10.069500	171.619000	-22.535200	0.285473	0.000000	-1.009250	18.314500	1.618270	14.849600
7.100000	-15.791700	238.854000	31.872400	0.274202	0.000000	-1.397720	-25.752900	-5.755390	17.499100	-10.424000	175.668000	-22.080100	0.285664	0.000000	-1.009880	18.858400	1.601320	15.224900
7.105000	-15.641700	244.681000	32.075700	0.273894	0.000000	-1.398330	-26.232800	-5.804600	17.851100	-10.822200	179.277000	-22.401700	0.284717	0.000000	-1.010340	19.336200	1.530400	15.378800
7.110000	-15.142100	252.865000	32.767900	0.274211	0.000000	-1.398610	-27.049800	-5.828790	18.535800	-10.677300	184.096000	-22.982400	0.283455	0.000000	-1.008920	19.582300	1.630560	15.540900
7.115000	-14.523500	259.998000	33.734100	0.273564	0.000000	-1.398650	-27.816900	-5.742840	18.905700	-10.207600	188.680000	-23.899400	0.282907	0.000000	-1.007530	19.803200	1.573120	15.829700
7.120000	-13.911200	267.501000	34.879100	0.272640	0.000000	-1.398470	-28.670900	-5.808870	19.199200	-9.997090	191.928000	-25.106700	0.283001	0.000000	-1.009010	20.428500	1.548380	16.138900
7.125000	-13.644000	275.624000	36.042400	0.271786	0.000000	-1.400400	-29.016000	-5.832370	19.550100	-9.151050	198.766000	-25.837500	0.282670	0.000000	-1.009000	21.143800	1.486060	16.642500
7.130000	-13.177300	282.026000	37.840100	0.271852	0.000000	-1.400360	-29.710400	-5.906570	20.023100	-8.527580	204.749000	-27.212600	0.282672	0.000000	-1.007510	21.467300	1.491250	17.146300
7.135000	-13.134500	288.393000	39.637300	0.270976	0.000000	-1.400060	-30.475700	-5.862220	20.241200	-8.711010	210.082000	-28.821900	0.282874	0.000000	-1.007280	21.978300	1.608670	17.642100
7.140000	-12.641400	293.095000	41.648200	0.270884	0.000000	-1.401670	-30.507600	-5.885090	20.546300	-8.878470	217.133000	-30.070300	0.281932	0.000000	-1.007700	22.804600	1.641050	18.032800
7.145000	-12.480100	296.538000	43.185700	0.270601	0.000000	-1.401900	-30.803100	-5.950540	20.702400	-9.134610	223.940000	-31.617300	0.281167	0.000000	-1.006710	23.292500	1.830570	18.414200
7.150000	-11.861000	300.674000	44.585500	0.269651	0.000000	-1.402610	-31.023700	-5.935800	20.704300	-9.674340	228.411000	-32.978200	0.281735	0.000000	-1.006580	23.736600	1.838340	18.937700
7.155000	-10.787800	303.505000	45.963500	0.268916	0.000000	-1.402340	-31.401700	-5.948670	20.664400	-10.073600	232.788000	-34.906000	0.280562	0.000000	-1.005600	23.965300	1.953710	19.037700
7.160000	-11.096100	306.930000	47.454400	0.268397	0.000000	-1.404220	-31.180300	-5.989670	20.743300	-10.130300	236.576000	-36.039400	0.280987	0.000000	-1.004980	24.209700	2.009270	19.455600
7.165000	-10.772900	308.997000	48.357800	0.267326	0.000000	-1.404290	-31.370800	-5.959090	20.551900	-10.402200	241.058000	-38.588600	0.279309	0.000000	-1.004380	24.527700	2.021590	19.453100
7.170000	-10.598700	309.641000	49.442000	0.267076	0.000000	-1.404980	-31.227900	-5.895340	20.528600	-10.325100	242.895000	-39.816500	0.279175	0.000000	-1.004300	24.696400	2.071080	19.579900
7.175000	-9.817860	311.658000	49.956200	0.266569	0.000000	-1.405690	-31.210000	-5.965400	20.481500	-9.993340	246.095000	-41.382500	0.279528	0.000000	-1.004080	24.958900	2.217250	19.921800
7.180000	-9.746800	311.826000	50.706200	0.266474	0.000000	-1.405220	-31.375200	-5.928150	20.472200	-10.293000	249.429000	-42.483700	0.278568	0.000000	-1.002800	24.980600	2.248000	19.957700
7.185000	-9.885060	314.083000	50.462200	0.265998	0.000000	-1.405270	-31.588200	-5.856490	20.483000	-10.185100	252.602000	-43.687200	0.277825	0.000000	-1.002870	25.315500	2.207880	20.040900
7.190000	-10.487300	313.053000	49.993400	0.267121	0.000000	-1.405230	-31.497100	-5.849220	20.782900	-10.237100	253.147000	-44.647100	0.277898	0.000000	-1.002550	25.292900	2.228080	20.119700
7.195000	-11.362500	311.016000	49.189900	0.267060	0.000000	-1.405120	-31.321200	-5.915760	20.624200	-9.665990	256.558000	-45.924800	0.276593	0.000000	-1.001650	25.394300	2.226080	20.052400
7.200000	-12.340500	307.967000	48.145000	0.267503	0.000000	-1.404590	-31.175000	-5.914000	20.567700	-9.038120	257.077000	-46.629000	0.275660	0.000000	-1.001210	25.325600	2.217360	19.849100
7.205000	-12.719000	308.342000	47.417900	0.266373	0.000000	-1.405180	-31.028600	-5.829370	20.250400	-8.728440	256.610000	-46.482000	0.275865	0.000000	-1.001980	25.478800	2.064390	19.888900
7.210000	-12.574400	304.677000	47.016200	0.267058	0.000000	-1.403770	-31.090900	-5.786160	20.223000	-8.206100	258.342000	-46.607700	0.275293	0.000000	-1.001170	25.431900	2.087110	19.853400
7.215000	-12.867200	302.436000	46.400300	0.267447	0.000000	-1.404210	-30.727600	-5.758510	20.195900	-7.966240	258.045000	-46.666200	0.275629	0.000000	-1.001100	25.386100	2.020390	19.929800
7.220000	-12.964200	301.983000	45.826600	0.267852	0.000000	-1.404370	-30.632800	-5.800970	20.281500	-7.210000	257.170000	-46.003500	0.276006	0.000000	-1.002360	25.616700	1.913340	19.957800
7.225000	-12.714100	299.020000	45.431900	0.267259	0.000000	-1.404070	-30.423800	-5.653230	19.914000	-6.856900	260.119000	-45.759200	0.275308	0.000000	-1.000730	25.480600	1.891250	19.980500
7.230000	-12.338600	298.113000	45.059700	0.267294	0.000000	-1.404350	-30.252700	-5.523340	19.874100	-7.112930	261.682000	-45.116800	0.274569	0.000000	-1.000360	25.539000	1.828440	19.897700
7.235000	-11.394500	297.414000	45.111500	0.266051	0.000000	-1.404640	-30.093300	-5.543300	19.431000	-6.734510	261.872000	-44.549600	0.275051	0.000000	-1.001320	25.805900	1.731900	20.040600
7.240000	-10.714200	294.701000	44.804300	0.266126	0.000000	-1.404580	-29.840900	-5.393010	19.283000	-6.702970	260.622000	-44.036900	0.275721	0.000000	-1.002130	25.895100	1.685010	20.125700
7.245000	-10.273500	293.234000	44.653200	0.265637	0.000000	-1.405370	-29.458800	-5.382850	19.031100	-6.624530	261.872000	-44.273600	0.275254	0.000000	-1.001770	25.923400	1.636640	20.104100
7.250000	-9.729880	289.633000	45.032000	0.266120	0.000000	-1.404930	-29.226700	-5.348500	18.934800	-6.300540	262.560000	-44.221400	0.274933	0.000000	-1.001080	25.808400	1.627530	20.062400
7.255000	-9.534610	287.553000	44.943300	0.265714	0.000000	-1.404900	-29.027000	-5.229600	18.691200	-6.222530	263.241000	-44.055200	0.274558	0.000000	-1.001570	26.003000	1.548210	20.020100
